<svg width="24" height="25" viewBox="0 0 24 25" fill="none" xmlns="http://www.w3.org/2000/svg">
<path d="M12 2.5459C6.5 2.5459 2 7.0359 2 12.5659C2 17.5659 5.66 21.7159 10.44 22.4659V15.4659H7.9V12.5659H10.44V10.3559C10.44 7.8459 11.93 6.4659 14.22 6.4659C15.31 6.4659 16.45 6.6559 16.45 6.6559V9.1259H15.19C13.95 9.1259 13.56 9.8959 13.56 10.6859V12.5659H16.34L15.89 15.4659H13.56V22.4659C15.9164 22.0937 18.0622 20.8914 19.6099 19.076C21.1576 17.2605 22.0054 14.9515 22 12.5659C22 7.0359 17.5 2.5459 12 2.5459Z" fill="#221F20"/>
</svg>
