<svg width="25" height="25" viewBox="0 0 25 25" fill="none" xmlns="http://www.w3.org/2000/svg">
<path d="M12.5 2.5459C7 2.5459 2.5 7.0359 2.5 12.5659C2.5 17.5659 6.16 21.7159 10.94 22.4659V15.4659H8.4V12.5659H10.94V10.3559C10.94 7.8459 12.43 6.4659 14.72 6.4659C15.81 6.4659 16.95 6.6559 16.95 6.6559V9.1259H15.69C14.45 9.1259 14.06 9.8959 14.06 10.6859V12.5659H16.84L16.39 15.4659H14.06V22.4659C16.4164 22.0937 18.5622 20.8914 20.1099 19.076C21.6576 17.2605 22.5054 14.9515 22.5 12.5659C22.5 7.0359 18 2.5459 12.5 2.5459Z" fill="white"/>
</svg>
