<svg width="24" height="23" viewBox="0 0 24 23" fill="none" xmlns="http://www.w3.org/2000/svg">
<path d="M23.0969 11.7774C23.0969 11.0127 23.0229 10.2234 22.8996 9.4834H12.2189V13.8494H18.3363C18.0896 15.2554 17.2756 16.4887 16.0669 17.2781L19.7176 20.1147C21.8636 18.1167 23.0969 15.2061 23.0969 11.7774Z" fill="#4280EF"/>
<path d="M12.2189 22.8281C15.2776 22.8281 17.8429 21.8167 19.7176 20.0901L16.0669 17.2781C15.0556 17.9687 13.7483 18.3634 12.2189 18.3634C9.25892 18.3634 6.76759 16.3654 5.85492 13.7014L2.10559 16.5874C4.02959 20.4107 7.92692 22.8281 12.2189 22.8281Z" fill="#34A353"/>
<path d="M5.85491 13.6768C5.38624 12.2708 5.38624 10.7415 5.85491 9.33547L2.10558 6.4248C0.502243 9.63147 0.502243 13.4055 2.10558 16.5875L5.85491 13.6768Z" fill="#F6B704"/>
<path d="M12.2189 4.67336C13.8223 4.64869 15.4009 5.26536 16.5603 6.37536L19.7916 3.11936C17.7443 1.19536 15.0309 0.159358 12.2189 0.184024C7.92692 0.184024 4.02959 2.60136 2.10559 6.42469L5.85492 9.33536C6.76759 6.64669 9.25892 4.67336 12.2189 4.67336Z" fill="#E54335"/>
</svg>
