<svg width="24" height="25" viewBox="0 0 24 25" fill="none" xmlns="http://www.w3.org/2000/svg">
<path d="M7.8 2.50586H16.2C19.4 2.50586 22 5.10586 22 8.30586V16.7059C22 18.2441 21.3889 19.7194 20.3012 20.8071C19.2135 21.8948 17.7383 22.5059 16.2 22.5059H7.8C4.6 22.5059 2 19.9059 2 16.7059V8.30586C2 6.7676 2.61107 5.29235 3.69878 4.20464C4.78649 3.11693 6.26174 2.50586 7.8 2.50586ZM7.6 4.50586C6.64522 4.50586 5.72955 4.88514 5.05442 5.56028C4.37928 6.23541 4 7.15108 4 8.10586V16.9059C4 18.8959 5.61 20.5059 7.6 20.5059H16.4C17.3548 20.5059 18.2705 20.1266 18.9456 19.4514C19.6207 18.7763 20 17.8606 20 16.9059V8.10586C20 6.11586 18.39 4.50586 16.4 4.50586H7.6ZM17.25 6.00586C17.5815 6.00586 17.8995 6.13756 18.1339 6.37198C18.3683 6.6064 18.5 6.92434 18.5 7.25586C18.5 7.58738 18.3683 7.90532 18.1339 8.13974C17.8995 8.37416 17.5815 8.50586 17.25 8.50586C16.9185 8.50586 16.6005 8.37416 16.3661 8.13974C16.1317 7.90532 16 7.58738 16 7.25586C16 6.92434 16.1317 6.6064 16.3661 6.37198C16.6005 6.13756 16.9185 6.00586 17.25 6.00586ZM12 7.50586C13.3261 7.50586 14.5979 8.03264 15.5355 8.97033C16.4732 9.90801 17 11.1798 17 12.5059C17 13.8319 16.4732 15.1037 15.5355 16.0414C14.5979 16.9791 13.3261 17.5059 12 17.5059C10.6739 17.5059 9.40215 16.9791 8.46447 16.0414C7.52678 15.1037 7 13.8319 7 12.5059C7 11.1798 7.52678 9.90801 8.46447 8.97033C9.40215 8.03264 10.6739 7.50586 12 7.50586ZM12 9.50586C11.2044 9.50586 10.4413 9.82193 9.87868 10.3845C9.31607 10.9471 9 11.7102 9 12.5059C9 13.3015 9.31607 14.0646 9.87868 14.6272C10.4413 15.1898 11.2044 15.5059 12 15.5059C12.7956 15.5059 13.5587 15.1898 14.1213 14.6272C14.6839 14.0646 15 13.3015 15 12.5059C15 11.7102 14.6839 10.9471 14.1213 10.3845C13.5587 9.82193 12.7956 9.50586 12 9.50586Z" fill="#221F20"/>
</svg>
