<svg width="24" height="25" viewBox="0 0 24 25" fill="none" xmlns="http://www.w3.org/2000/svg">
<path d="M22.46 6.50586C21.69 6.85586 20.86 7.08586 20 7.19586C20.88 6.66586 21.56 5.82586 21.88 4.81586C21.05 5.31586 20.13 5.66586 19.16 5.86586C18.37 5.00586 17.26 4.50586 16 4.50586C13.65 4.50586 11.73 6.42586 11.73 8.79586C11.73 9.13586 11.77 9.46586 11.84 9.77586C8.27998 9.59586 5.10998 7.88586 2.99998 5.29586C2.62998 5.92586 2.41998 6.66586 2.41998 7.44586C2.41998 8.93586 3.16998 10.2559 4.32998 11.0059C3.61998 11.0059 2.95998 10.8059 2.37998 10.5059C2.37998 10.5059 2.37998 10.5059 2.37998 10.5359C2.37998 12.6159 3.85998 14.3559 5.81998 14.7459C5.45998 14.8459 5.07998 14.8959 4.68998 14.8959C4.41998 14.8959 4.14998 14.8659 3.88998 14.8159C4.42998 16.5059 5.99998 17.7659 7.88998 17.7959C6.42998 18.9559 4.57998 19.6359 2.55998 19.6359C2.21998 19.6359 1.87998 19.6159 1.53998 19.5759C3.43998 20.7959 5.69998 21.5059 8.11998 21.5059C16 21.5059 20.33 14.9659 20.33 9.29586C20.33 9.10586 20.33 8.92586 20.32 8.73586C21.16 8.13586 21.88 7.37586 22.46 6.50586Z" fill="#221F20"/>
</svg>
